<?xml version="1.0" encoding="UTF-8"?>
<!--Generator: Apple Native CoreSVG 341-->
<!DOCTYPE svg
PUBLIC "-//W3C//DTD SVG 1.1//EN"
       "http://www.w3.org/Graphics/SVG/1.1/DTD/svg11.dtd">
<svg version="1.1" xmlns="http://www.w3.org/2000/svg" xmlns:xlink="http://www.w3.org/1999/xlink" viewBox="0 0 127.197 127.295">
 <g>
  <rect height="127.295" opacity="0" width="127.197" x="0" y="0"/>
  <path d="M63.5742 127.197C98.6816 127.197 127.197 98.7305 127.197 63.623C127.197 28.5156 98.6816 0 63.5742 0C28.4668 0 0 28.5156 0 63.623C0 98.7305 28.4668 127.197 63.5742 127.197ZM63.5742 118.115C33.4473 118.115 9.08203 93.75 9.08203 63.623C9.08203 33.4961 33.4473 9.13086 63.5742 9.13086C93.7012 9.13086 118.066 33.4961 118.066 63.623C118.066 93.75 93.7012 118.115 63.5742 118.115Z" fill="black"/>
  <path d="M63.5254 94.4824C78.9551 94.4824 91.2598 82.0801 91.2598 66.6504C91.2598 64.6484 89.502 62.9395 87.5 62.9395C85.4492 62.9395 83.7402 64.6484 83.7402 66.6504C83.7402 77.9297 74.7559 86.9629 63.5254 86.9629C52.2461 86.9629 43.3105 77.9297 43.3105 66.6504C43.3105 55.4199 52.2461 46.4844 63.5254 46.4844C66.0156 46.4844 68.3594 46.6309 70.1172 46.8262C72.3633 46.9727 74.0234 45.2637 74.0234 43.2129C74.0234 41.2598 72.5098 39.6484 70.459 39.5508C67.5781 39.209 65.0391 39.1602 62.5977 39.1602C48.291 39.1602 35.791 51.1719 35.791 66.5039C35.791 82.0801 48.1445 94.4824 63.5254 94.4824ZM78.125 43.8477C78.125 42.8711 77.7832 41.9434 77.0996 41.2598L64.5508 28.6133C64.0625 28.125 63.0371 27.5879 62.1582 27.5879C60.1562 27.5879 58.6426 29.1504 58.6426 31.0547C58.6426 32.0801 58.9844 32.959 59.7656 33.7402L70.0684 43.8477L59.7656 53.9551C58.9844 54.6875 58.6426 55.5664 58.6426 56.5918C58.6426 58.5449 60.1562 60.0586 62.1582 60.0586C63.0371 60.0586 64.0137 59.6191 64.5508 59.0332L77.0996 46.3867C77.7832 45.752 78.125 44.7754 78.125 43.8477Z" fill="black"/>
 </g>
</svg>
