<?xml version="1.0" encoding="UTF-8"?>
<!--Generator: Apple Native CoreSVG 341-->
<!DOCTYPE svg
PUBLIC "-//W3C//DTD SVG 1.1//EN"
       "http://www.w3.org/Graphics/SVG/1.1/DTD/svg11.dtd">
<svg version="1.1" xmlns="http://www.w3.org/2000/svg" xmlns:xlink="http://www.w3.org/1999/xlink" viewBox="0 0 127.197 127.295">
 <g>
  <rect height="127.295" opacity="0" width="127.197" x="0" y="0"/>
  <path d="M63.5742 127.197C98.6816 127.197 127.197 98.7305 127.197 63.623C127.197 28.5156 98.6816 0 63.5742 0C28.4668 0 0 28.5156 0 63.623C0 98.7305 28.4668 127.197 63.5742 127.197ZM63.5742 118.115C33.4473 118.115 9.08203 93.75 9.08203 63.623C9.08203 33.4961 33.4473 9.13086 63.5742 9.13086C93.7012 9.13086 118.066 33.4961 118.066 63.623C118.066 93.75 93.7012 118.115 63.5742 118.115Z" fill="black"/>
  <path d="M91.4551 50.3418L51.0742 50.3418C46.1914 50.3418 43.457 53.0273 43.457 57.7637L43.457 69.5801C43.457 74.3164 46.1914 77.002 51.0742 77.002L91.4551 77.002C96.3379 77.002 99.1211 74.3164 99.1211 69.5801L99.1211 57.7637C99.1211 53.0273 96.3379 50.3418 91.4551 50.3418ZM62.0605 91.5039L62.0605 35.8887C62.0605 33.7891 60.5469 32.0801 58.3496 32.0801C56.8359 32.0801 55.8105 32.7148 54.248 34.2285L26.6602 59.8633C25.2441 61.2793 24.8535 62.5 24.8535 63.623C24.8535 64.6484 25.2441 65.918 26.6602 67.2852L54.248 93.2129C55.6641 94.4824 56.8848 95.166 58.4473 95.166C60.5469 95.166 62.0605 93.6523 62.0605 91.5039Z" fill="black"/>
 </g>
</svg>
